<svg width="14" height="16" viewBox="0 0 14 16" fill="none" xmlns="http://www.w3.org/2000/svg">
<g id="book_2">
<path id="book_2_2" d="M12 0H2C1.47005 0.00158273 0.962255 0.212794 0.587524 0.587524C0.212794 0.962255 0.00158273 1.47005 0 2V13C0.00237409 13.7949 0.319191 14.5566 0.881287 15.1187C1.44338 15.6808 2.20508 15.9976 3 16H12C12.5299 15.9984 13.0377 15.7872 13.4125 15.4125C13.7872 15.0377 13.9984 14.5299 14 14V2C13.9984 1.47005 13.7872 0.962255 13.4125 0.587524C13.0377 0.212794 12.5299 0.00158273 12 0ZM12 14H3C2.73478 14 2.48044 13.8946 2.29291 13.7071C2.10537 13.5196 2 13.2652 2 13C2 12.7348 2.10537 12.4804 2.29291 12.2929C2.48044 12.1054 2.73478 12 3 12H12V14ZM12 10H3C2.65842 9.99787 2.3194 10.0589 2 10.18V2H7V7L9 6L11 7V2H12V10Z" fill="white"/>
</g>
</svg>
