<svg width="30" height="22" viewBox="0 0 30 22" fill="none" xmlns="http://www.w3.org/2000/svg">
<g id="Apply Certificate">
<path id="Vector" d="M26.2039 11.6826C26.4279 11.4332 26.7047 11.1181 26.7047 10.6981C26.7047 10.2649 26.4279 9.94988 26.2039 9.7136C26.1116 9.60859 25.993 9.47733 25.9666 9.4117C25.9402 9.33294 25.9534 9.14917 25.9798 9.00477C26.0062 8.67661 26.0457 8.26969 25.7953 7.94153C25.5448 7.60024 25.1494 7.50835 24.833 7.44272C24.688 7.40334 24.5035 7.36396 24.4508 7.32458C24.3849 7.2852 24.2926 7.12769 24.2267 7.00955C24.0554 6.72076 23.8445 6.36635 23.4359 6.23508C23.0536 6.10382 22.6845 6.26134 22.3814 6.3926C22.1046 6.51074 21.8673 6.51074 21.5905 6.3926C21.2873 6.26134 20.9183 6.10382 20.5228 6.23508C20.1274 6.36635 19.9165 6.72076 19.7452 6.99642C19.6793 7.12769 19.587 7.2852 19.5211 7.32458C19.4684 7.36396 19.2838 7.40334 19.1388 7.44272C18.8225 7.50835 18.4271 7.60024 18.1766 7.94153C17.9262 8.26969 17.9657 8.67661 17.9921 9.00477C18.0185 9.14917 18.0316 9.33294 18.0053 9.4117C17.9789 9.47733 17.8603 9.60859 17.768 9.7136C17.5439 9.96301 17.2671 10.2649 17.2671 10.6981C17.2671 11.1181 17.5439 11.4332 17.768 11.6826C17.8603 11.7876 17.9789 11.9189 18.0053 11.9845C18.0316 12.0632 18.0185 12.247 18.0053 12.3914C17.9657 12.7196 17.9262 13.1134 18.1766 13.4547C18.2425 13.5465 18.3084 13.6122 18.3875 13.6647H18.4007C18.6248 13.8353 18.9016 13.901 19.1388 13.9535C19.2047 13.9666 19.2838 13.9797 19.3497 14.006C19.4288 14.0191 19.4947 14.0453 19.5211 14.0716C19.587 14.111 19.6793 14.2685 19.7452 14.3866C19.9165 14.6754 20.1274 15.0298 20.5228 15.1611C20.536 15.1742 20.5624 15.1742 20.5756 15.1742C20.9578 15.2792 21.3005 15.1217 21.5905 14.9905C21.6828 14.9511 21.7882 14.9117 21.8805 14.8854C21.92 14.8723 21.9596 14.8592 21.9859 14.8592C22.0123 14.8592 22.0518 14.8723 22.0914 14.8854C22.1837 14.9117 22.2891 14.9511 22.3814 14.9905C22.6054 15.0955 22.8691 15.2136 23.1459 15.2136C23.225 15.2136 23.304 15.2005 23.3963 15.1742C23.4095 15.1742 23.4359 15.1611 23.449 15.1611C23.8445 15.0298 24.0554 14.6754 24.2267 14.3866C24.2926 14.2685 24.3849 14.111 24.4508 14.0716C24.4772 14.0453 24.5431 14.0191 24.6221 14.006C24.688 13.9797 24.7671 13.9666 24.833 13.9535C25.0703 13.901 25.3471 13.8353 25.5712 13.6647H25.5844C25.6634 13.6122 25.7294 13.5465 25.7953 13.4547C26.0457 13.1134 26.0062 12.7064 25.9798 12.3914C25.9666 12.247 25.9402 12.0632 25.9666 11.9845C25.993 11.9189 26.1116 11.7876 26.2039 11.6826ZM25.4657 11.0263C25.2944 11.21 25.1098 11.42 25.0308 11.6826C24.9385 11.9451 24.9648 12.2339 24.9912 12.4833C25.0044 12.5227 25.0044 12.6014 25.0044 12.6671C25.0044 12.759 25.0176 12.8508 25.0044 12.8771C24.9517 12.9165 24.7408 12.969 24.609 12.9952C24.3717 13.0477 24.0949 13.1002 23.8708 13.2709C23.6336 13.4415 23.5018 13.6778 23.3699 13.8878C23.304 14.006 23.1854 14.1897 23.1459 14.216C23.1459 14.216 23.1459 14.2291 23.1327 14.2291C23.0668 14.2291 22.8822 14.1372 22.7768 14.0979C22.5791 14.006 22.355 13.9141 22.1178 13.8878C22.0782 13.8747 22.0255 13.8747 21.9859 13.8747C21.9464 13.8747 21.8937 13.8747 21.8541 13.8878C21.6169 13.9141 21.3928 14.006 21.1951 14.0979C21.0765 14.1504 20.8787 14.2029 20.8392 14.2291C20.7733 14.1897 20.6678 14.006 20.6019 13.8878C20.4833 13.6778 20.3383 13.4415 20.1142 13.2709C19.877 13.1002 19.6002 13.0477 19.3629 12.9952C19.2311 12.969 19.0202 12.9165 18.9807 12.8771C18.9675 12.8508 18.9675 12.7721 18.9675 12.6802C18.9675 12.6146 18.9675 12.5489 18.9807 12.4833C19.007 12.2339 19.0334 11.9451 18.9411 11.6826C18.862 11.42 18.6775 11.21 18.5062 11.0263C18.4271 10.9344 18.2689 10.7637 18.2557 10.6981C18.2689 10.6325 18.4271 10.4618 18.5062 10.3568C18.6775 10.1862 18.862 9.97614 18.9411 9.7136C19.0334 9.43795 19.007 9.16229 18.9807 8.91289C18.9675 8.78162 18.9543 8.5716 18.9675 8.51909C19.0202 8.47971 19.2311 8.42721 19.3629 8.40096C19.6002 8.34845 19.877 8.28282 20.1142 8.1253C20.3383 7.95466 20.4833 7.71838 20.6019 7.49523C20.6678 7.39021 20.7865 7.19332 20.826 7.16707C20.9051 7.16707 21.0896 7.24582 21.1951 7.29833C21.4323 7.40334 21.696 7.50835 21.9859 7.50835C22.2759 7.50835 22.5395 7.40334 22.7768 7.29833C22.8954 7.24582 23.08 7.18019 23.1327 7.16707C23.1854 7.19332 23.304 7.39021 23.3699 7.49523C23.5018 7.71838 23.6336 7.95466 23.8708 8.1253C24.0949 8.28282 24.3717 8.34845 24.609 8.40096C24.7408 8.42721 24.9517 8.47971 24.9912 8.50597C25.0176 8.5716 25.0044 8.78162 24.9912 8.91289C24.9648 9.16229 24.9385 9.43795 25.0308 9.7136C25.1098 9.97614 25.2944 10.1862 25.4657 10.3568C25.5448 10.4618 25.703 10.6325 25.703 10.6981C25.703 10.7637 25.5448 10.9344 25.4657 11.0263ZM21.9859 8.23031C20.6283 8.23031 19.5079 9.33294 19.5079 10.6981C19.5079 12.0501 20.6283 13.1527 21.9859 13.1527C23.3436 13.1527 24.4508 12.0501 24.4508 10.6981C24.4508 9.33294 23.3436 8.23031 21.9859 8.23031ZM21.9859 12.1683C21.1687 12.1683 20.4965 11.5119 20.4965 10.6981C20.4965 9.88425 21.1687 9.2148 21.9859 9.2148C22.8032 9.2148 23.4622 9.88425 23.4622 10.6981C23.4622 11.5119 22.8032 12.1683 21.9859 12.1683ZM21.9859 13.9666L21.8541 13.8878C21.6169 13.9141 21.3928 14.006 21.1951 14.0979C21.0765 14.1504 20.8787 14.2029 20.8392 14.2291C20.7733 14.1897 20.6678 14.006 20.6019 13.8878C20.4833 13.6778 20.3383 13.4415 20.1142 13.2709C19.877 13.1002 19.6002 13.0477 19.3629 12.9952C19.2311 12.969 19.0202 12.9165 18.9807 12.8771C18.9675 12.8508 18.9675 12.7721 18.9675 12.6802L18.4007 13.6647H18.3875L15.8831 18.0095L17.913 18.1277L19.0202 19.8079L21.8805 14.8854L21.9859 14.7017L22.3023 14.1504L21.9859 13.9666ZM18.9675 17.9439L18.4666 17.1695L17.5439 17.1169L19.3497 14.006L19.5343 13.6909L20.9578 14.5048L20.5756 15.1742L18.9675 17.9439ZM25.5844 13.6647H25.5712L25.0044 12.6671C25.0044 12.759 25.0176 12.8508 25.0044 12.8771C24.9517 12.9165 24.7408 12.969 24.609 12.9952C24.3717 13.0477 24.0949 13.1002 23.8708 13.2709C23.6336 13.4415 23.5018 13.6778 23.3699 13.8878C23.304 14.006 23.1854 14.1897 23.1459 14.216C23.1459 14.216 23.1459 14.2291 23.1327 14.2291C23.0668 14.2291 22.8822 14.1372 22.7768 14.0979C22.5791 14.006 22.355 13.9141 22.1178 13.8878L21.9859 13.9666L21.6696 14.1504L21.9859 14.7017L22.0914 14.8854L24.9517 19.8079L26.0589 18.1277L28.0888 18.0095L25.5844 13.6647ZM25.5053 17.1695L25.0044 17.9439L23.3963 15.1742L23.0141 14.5048L24.4376 13.6909L24.6221 14.006L26.4279 17.1169L25.5053 17.1695ZM28.4446 0H1.55536C0.698594 0 0 0.695705 0 1.54893V20.4511C0 21.3043 0.698594 22 1.55536 22H28.4446C29.3014 22 30 21.3043 30 20.4511V1.54893C30 0.695705 29.3014 0 28.4446 0ZM28.9982 20.4511C28.9982 20.753 28.7478 21.0024 28.4446 21.0024H1.55536C1.2522 21.0024 1.00176 20.753 1.00176 20.4511V1.54893C1.00176 1.24702 1.2522 0.997614 1.55536 0.997614H28.4446C28.7478 0.997614 28.9982 1.24702 28.9982 1.54893V20.4511ZM14.341 16.5906H2.47803C2.20518 16.5906 1.98374 16.37 1.98374 16.0983C1.98374 15.8266 2.20518 15.6061 2.47803 15.6061H14.341C14.6138 15.6061 14.8352 15.8266 14.8352 16.0983C14.8352 16.37 14.6138 16.5906 14.341 16.5906ZM14.341 13.309H2.47803C2.20518 13.309 1.98374 13.0884 1.98374 12.8167C1.98374 12.545 2.20518 12.3245 2.47803 12.3245H14.341C14.6138 12.3245 14.8352 12.545 14.8352 12.8167C14.8352 13.0884 14.6138 13.309 14.341 13.309ZM14.341 10.0273H2.47803C2.20518 10.0273 1.98374 9.8068 1.98374 9.53508C1.98374 9.26337 2.20518 9.04284 2.47803 9.04284H14.341C14.6138 9.04284 14.8352 9.26337 14.8352 9.53508C14.8352 9.8068 14.6138 10.0273 14.341 10.0273ZM21.5905 3.88282H8.40949C8.13664 3.88282 7.9152 3.66229 7.9152 3.39057C7.9152 3.11885 8.13664 2.89833 8.40949 2.89833H21.5905C21.8634 2.89833 22.0848 3.11885 22.0848 3.39057C22.0848 3.66229 21.8634 3.88282 21.5905 3.88282Z" fill="#5DD3B3"/>
</g>
</svg>
