<svg width="20" height="16" viewBox="0 0 20 16" fill="none" xmlns="http://www.w3.org/2000/svg">
<g id="Arrow 02 1" clip-path="url(#clip0_80_55)">
<path id="Path 3574" d="M0.480454 7.23785L6.57491 0.38428C6.67361 0.267874 6.79463 0.172455 6.93082 0.10359C7.06702 0.034726 7.21563 -0.00617711 7.36789 -0.0166599C7.52015 -0.0271427 7.67296 -0.00701058 7.81731 0.0425385C7.96166 0.0920876 8.09462 0.170032 8.20834 0.271813C8.32206 0.373594 8.41424 0.497166 8.47943 0.635158C8.54462 0.77315 8.58151 0.922799 8.58791 1.07528C8.59431 1.22776 8.5701 1.37995 8.5167 1.52292C8.46331 1.66589 8.38181 1.79676 8.27702 1.90771L3.87253 6.86047L18.8575 6.86047C19.1606 6.86047 19.4514 6.98087 19.6657 7.19522C19.8801 7.40958 20.0005 7.70032 20.0005 8.00346C20.0005 8.3066 19.8801 8.59729 19.6657 8.81164C19.4514 9.02599 19.1606 9.14644 18.8575 9.14644L3.87079 9.14644L8.27528 14.0984C8.47443 14.3275 8.5767 14.6252 8.56051 14.9284C8.54433 15.2315 8.41094 15.5166 8.18853 15.7232C7.95992 15.9203 7.6633 16.02 7.36209 16.0012C7.06087 15.9824 6.77896 15.8465 6.57664 15.6226L0.482188 8.76907C0.297286 8.5584 0.195327 8.28768 0.195327 8.00737C0.195327 7.72707 0.297286 7.4563 0.482188 7.24563L0.480454 7.23785Z" fill="white"/>
</g>
<defs>
<clipPath id="clip0_80_55">
<rect width="19.8085" height="16" fill="white" transform="translate(20 16) rotate(-180)"/>
</clipPath>
</defs>
</svg>
