<svg width="27" height="26" viewBox="0 0 27 26" fill="none" xmlns="http://www.w3.org/2000/svg">
<g id="Certificate">
<path id="Vector" d="M25.4482 0H3.80182C2.94818 0 2.25273 0.693395 2.25273 1.5445V2.24878H1.54909C0.695454 2.24878 0 2.94217 0 3.79328V17.8434C0 18.6945 0.695454 19.3879 1.54909 19.3879H7.97455C8.15727 19.6272 8.40818 19.7794 8.70545 19.8311L8.85546 19.8583C8.99455 19.8828 9.09546 19.9752 9.12818 20.1112L9.20182 20.413C9.27 20.6931 9.42546 20.9215 9.65182 21.0819V25.1961C9.65182 25.5305 9.85364 25.8242 10.1645 25.9439C10.26 25.9819 10.3609 25.9982 10.4564 25.9982C10.6773 25.9982 10.8927 25.9058 11.0482 25.7372L12.3709 24.2933L13.6936 25.7372C13.92 25.9847 14.2664 26.0662 14.58 25.9439C14.8909 25.8242 15.0927 25.5305 15.0927 25.1961V21.0656C15.3027 20.8889 15.4418 20.6523 15.4936 20.3668L15.5182 20.2227C15.5427 20.084 15.6382 19.9834 15.7745 19.948L16.0773 19.8746C16.3745 19.8012 16.6173 19.6326 16.7782 19.3824H23.1955C24.0491 19.3824 24.7445 18.689 24.7445 17.8379V17.1337H25.4509C26.3045 17.1337 27 16.4403 27 15.5892V1.54179C27 0.690676 26.3045 0 25.4482 0ZM16.8927 15.6218C16.8627 15.5538 16.86 15.475 16.8818 15.3934L16.9664 15.0997C17.0618 14.768 17.0182 14.4389 16.8355 14.1425C16.65 13.8516 16.3745 13.664 16.0391 13.6069L15.8891 13.5797C15.75 13.5552 15.6518 13.4627 15.6164 13.3268L15.5427 13.025C15.4609 12.6905 15.2536 12.4267 14.9509 12.2663C14.6455 12.1031 14.3127 12.0787 13.9855 12.1956L13.8436 12.2473C13.71 12.2962 13.5764 12.2636 13.4809 12.163L13.2682 11.94C13.2682 11.94 13.2682 11.94 13.2655 11.9373C13.0282 11.6898 12.7227 11.5647 12.3736 11.5756C12.0273 11.5865 11.7273 11.7333 11.5036 11.9971L11.4082 12.1113C11.3155 12.2201 11.1845 12.2609 11.0482 12.2201L10.7509 12.1331C10.4155 12.0352 10.0855 12.0814 9.79636 12.2636C9.50455 12.443 9.31636 12.7177 9.25364 13.0603L9.22636 13.2126C9.20182 13.3513 9.10909 13.4492 8.97 13.4845L8.67 13.5579C8.33455 13.6395 8.07 13.8434 7.90636 14.148C7.74273 14.4525 7.72091 14.7843 7.83818 15.1079L7.89 15.252C7.93909 15.3852 7.90636 15.5157 7.80546 15.6136L7.79727 15.6218H6.39818C6.21 14.2703 5.13545 13.1963 3.77727 13.0086V8.62257C5.13273 8.43495 6.21 7.36087 6.39818 6.00943H18.3518C18.54 7.36359 19.6145 8.43767 20.9727 8.62257V13.0086C19.6173 13.1963 18.54 14.2676 18.3518 15.6218H16.8927ZM12.9655 23.6924C12.81 23.5238 12.6 23.4313 12.3709 23.4313C12.1418 23.4313 11.9318 23.5238 11.7764 23.6924L10.4945 25.0928V21.3022C10.5818 21.2913 10.6718 21.2696 10.7591 21.2397L10.9009 21.188C11.0345 21.139 11.1682 21.1717 11.2664 21.2723L11.4791 21.4925C11.7082 21.7318 12.0027 21.8569 12.3273 21.8569C12.3409 21.8569 12.3545 21.8569 12.3709 21.8569C12.7173 21.8488 13.0173 21.7019 13.2436 21.4354L13.3391 21.3212C13.4318 21.2097 13.56 21.1717 13.6991 21.2125L13.9964 21.2995C14.0809 21.3239 14.1655 21.3403 14.25 21.3457V25.0928L12.9655 23.6924ZM15.8755 19.0616L15.5727 19.135C15.1118 19.2492 14.7736 19.6081 14.6891 20.0786L14.6645 20.2227C14.6455 20.3287 14.5964 20.3994 14.5091 20.4538C14.4982 20.462 14.4873 20.4674 14.4764 20.4728C14.3973 20.5109 14.3209 20.5191 14.2336 20.4919L13.9364 20.4049C13.4809 20.2716 13.0064 20.4157 12.6955 20.7801L12.6 20.8943C12.5318 20.9732 12.4527 21.0112 12.3464 21.014C12.2427 21.0167 12.1609 20.984 12.09 20.9079L11.8745 20.6849C11.6427 20.4484 11.34 20.3206 11.0236 20.3206C10.8873 20.3206 10.7482 20.345 10.6145 20.394L10.4727 20.4484C10.3718 20.4837 10.2873 20.4783 10.1945 20.4293C10.1018 20.3804 10.0473 20.3124 10.0227 20.2091L9.94909 19.91C9.83727 19.4477 9.47455 19.1105 9.00546 19.0289L8.85546 19.0018C8.75182 18.9827 8.68091 18.9365 8.62636 18.8468C8.57182 18.757 8.55818 18.67 8.58818 18.5667L8.67273 18.273C8.80636 17.8162 8.66455 17.3458 8.29909 17.0385L8.18182 16.9406C8.1 16.8726 8.06182 16.7938 8.05909 16.6904C8.05636 16.5844 8.08909 16.5055 8.16545 16.4321L8.38636 16.22C8.73273 15.891 8.84455 15.4097 8.68091 14.9637L8.62909 14.8223C8.59364 14.7245 8.59909 14.6374 8.64818 14.545C8.69727 14.4525 8.76546 14.4009 8.86909 14.3737L9.16636 14.3003C9.63 14.1888 9.96818 13.8271 10.05 13.3594L10.0773 13.2099C10.0964 13.1065 10.1455 13.0331 10.2382 12.976C10.3255 12.9216 10.4127 12.9107 10.5109 12.9379L10.8109 13.025C11.2664 13.1555 11.7409 13.0114 12.0491 12.6497L12.1445 12.5355C12.2127 12.4539 12.2918 12.4159 12.3955 12.4131C12.5018 12.4104 12.5836 12.443 12.6545 12.5192L12.8673 12.7422C13.1973 13.0848 13.68 13.1963 14.1273 13.0358L14.2691 12.9842C14.3673 12.9488 14.4545 12.9543 14.5473 13.0032C14.64 13.0521 14.6945 13.1201 14.7191 13.2235L14.7927 13.5226C14.9073 13.9848 15.2673 14.322 15.7364 14.4036L15.8864 14.4308C15.99 14.4498 16.0609 14.496 16.1155 14.5858C16.17 14.6755 16.1836 14.7625 16.1536 14.8631L16.0691 15.1568C15.9355 15.6136 16.08 16.0868 16.4427 16.3913L16.5627 16.4919C16.6418 16.5572 16.68 16.636 16.6827 16.7394C16.6855 16.8427 16.6527 16.9243 16.5764 16.9977L16.3555 17.2098C16.0091 17.5388 15.8973 18.0201 16.0582 18.4634L16.11 18.6075C16.11 18.6102 16.11 18.6102 16.1127 18.6129C16.1482 18.7081 16.1427 18.7951 16.0909 18.8903C16.0445 18.9827 15.9764 19.0371 15.8755 19.0616ZM23.9018 17.8407C23.9018 18.2295 23.5855 18.5449 23.1955 18.5449H16.9636C16.9527 18.4715 16.9336 18.4008 16.9064 18.3274L16.8545 18.1833C16.8055 18.05 16.8355 17.9195 16.9391 17.8216L17.1627 17.6068C17.4109 17.3675 17.5391 17.0602 17.5255 16.7149C17.5227 16.6279 17.5118 16.5436 17.49 16.462H18.7391C18.9709 16.462 19.1618 16.2744 19.1618 16.0405C19.1618 14.8169 20.16 13.819 21.39 13.819C21.6218 13.819 21.8127 13.6313 21.8127 13.3975V8.23101C21.8127 7.99988 21.6245 7.80954 21.39 7.80954C20.1627 7.80954 19.1618 6.81159 19.1618 5.58795C19.1618 5.35682 18.9736 5.16648 18.7391 5.16648H6.00273C5.77091 5.16648 5.58 5.3541 5.58 5.58795C5.58 6.81431 4.58182 7.80954 3.35182 7.80954C3.12 7.80954 2.92909 7.99716 2.92909 8.23101V13.4002C2.92909 13.6313 3.11727 13.8217 3.35182 13.8217C4.57909 13.8217 5.58 14.8169 5.58 16.0433C5.58 16.2744 5.76818 16.4647 6.00273 16.4647H7.23546C7.22182 16.549 7.21364 16.6333 7.21636 16.7231C7.22727 17.0657 7.37455 17.3648 7.63636 17.5878L7.75364 17.6857C7.86273 17.7754 7.90091 17.9059 7.86 18.0419L7.77545 18.3355C7.75364 18.4062 7.74 18.4769 7.73455 18.5449H1.54909C1.15909 18.5449 0.842727 18.2295 0.842727 17.8407V3.79056C0.842727 3.40172 1.15909 3.08629 1.54909 3.08629H23.1955C23.5855 3.08629 23.9018 3.40172 23.9018 3.79056V17.8407ZM26.1573 15.5946C26.1573 15.9834 25.8409 16.2989 25.4509 16.2989H24.7445V3.79056C24.7445 2.93945 24.0491 2.24606 23.1955 2.24606H3.09818V1.54179C3.09818 1.15294 3.41455 0.837513 3.80455 0.837513H25.4509C25.8409 0.837513 26.1573 1.15294 26.1573 1.54179V15.5946ZM12.3709 14.061C10.9009 14.061 9.70636 15.252 9.70636 16.7176C9.70636 18.1833 10.9009 19.3743 12.3709 19.3743C13.8409 19.3743 15.0355 18.1833 15.0355 16.7176C15.0355 15.252 13.8409 14.061 12.3709 14.061ZM12.3709 18.5341C11.3673 18.5341 10.5491 17.721 10.5491 16.7176C10.5491 15.717 11.3645 14.9012 12.3709 14.9012C13.3745 14.9012 14.1927 15.7142 14.1927 16.7176C14.1927 17.7183 13.3773 18.5341 12.3709 18.5341ZM17.5691 7.78234C17.5691 8.01348 17.3809 8.20382 17.1464 8.20382H7.59273C7.36091 8.20382 7.17 8.01619 7.17 7.78234C7.17 7.54849 7.35818 7.36087 7.59273 7.36087H17.1464C17.3809 7.36087 17.5691 7.54849 17.5691 7.78234ZM15.4445 10.0583C15.4445 10.2894 15.2564 10.4798 15.0218 10.4798H9.72273C9.49091 10.4798 9.3 10.2922 9.3 10.0583C9.3 9.82446 9.48818 9.63684 9.72273 9.63684H15.0218C15.2536 9.63684 15.4445 9.82446 15.4445 10.0583Z" fill="#5DD3B3"/>
</g>
</svg>
