<svg width="25" height="25" viewBox="0 0 43 44" fill="none" xmlns="http://www.w3.org/2000/svg">
<g id="Email">
<path id="Vector" fill-rule="evenodd" clip-rule="evenodd" d="M5.83636 17.5179L1.84223 14.0736L5.83636 11.5192V17.5179ZM8.91578 1.37622H34.0827C34.5315 1.37596 34.962 1.55242 35.2795 1.86679C35.5971 2.18117 35.7757 2.60771 35.7761 3.05262V18.7093L21.4993 31.0254L7.22296 18.7093V3.05262C7.22309 2.83235 7.26698 2.61425 7.35212 2.41079C7.43727 2.20733 7.56199 2.02249 7.71919 1.86682C7.87638 1.71116 8.06296 1.58771 8.26827 1.50353C8.47358 1.41935 8.69361 1.37609 8.91578 1.37622ZM41.1558 14.0736L37.1617 17.5179V11.5192L41.1558 14.0736ZM41.6134 15.4978L26.3677 28.6489L41.5192 41.7208C41.5805 41.565 41.6118 41.3992 41.6114 41.2319V15.4978H41.6134ZM2.78948 42.6238H40.209C40.2834 42.6238 40.3576 42.6176 40.4309 42.6052L25.3109 29.5641L21.9549 32.4559C21.8296 32.5667 21.6675 32.628 21.4995 32.628C21.3315 32.628 21.1694 32.5667 21.0441 32.4559L17.6881 29.5641L2.56758 42.6052C2.64089 42.6176 2.71512 42.6238 2.78948 42.6238ZM16.6318 28.6489L1.38512 15.4978V41.23C1.38549 41.3971 1.41675 41.5628 1.47733 41.7188L16.6318 28.6489ZM2.78948 44H40.209C40.9494 43.9994 41.6592 43.7073 42.1825 43.1881C42.7058 42.6689 42.9999 41.965 43 41.2309V13.9876C42.9997 13.8728 42.9705 13.7599 42.9152 13.6591C42.8598 13.5583 42.78 13.4728 42.6829 13.4102L37.1636 9.87996V3.05262C37.1626 2.243 36.8376 1.46685 36.26 0.894545C35.6824 0.322236 34.8993 0.000517333 34.0827 0H8.91578C8.09957 0.000775911 7.31698 0.32249 6.73969 0.894574C6.1624 1.46666 5.83753 2.2424 5.83636 3.05164V9.88631L0.316079 13.4102C0.219129 13.4728 0.139454 13.5584 0.0842645 13.6592C0.029075 13.76 0.000113138 13.8729 0 13.9876V41.23C-9.33823e-07 41.9639 0.293748 42.6678 0.81675 43.1871C1.33975 43.7065 2.04926 43.9988 2.78948 44Z" fill="#5DD3B3"/>
</g>
</svg>
