<svg width="16" height="12" viewBox="0 0 16 12" fill="none" xmlns="http://www.w3.org/2000/svg">
<g id="Password">
<path id="eye_1" d="M0.0718014 6.37021C-0.0239338 6.13181 -0.0239338 5.86579 0.0718014 5.62739C0.163798 5.3976 2.38695 0 7.99956 0C13.6122 0 15.8393 5.3984 15.9289 5.62739C16.0237 5.86596 16.0237 6.13164 15.9289 6.37021C15.8377 6.6008 13.609 12 7.99956 12C2.39015 12 0.164598 6.6008 0.0718014 6.37021ZM2.10293 6.0016C2.64451 7.06915 4.4525 10.0005 7.99877 10.0005C11.5275 10.0005 13.3586 7.04841 13.897 5.99761C13.357 4.93404 11.5491 2.00027 7.99877 2.00027C4.4733 2.00027 2.64454 4.94681 2.10376 6.0016H2.10293ZM4.99966 6.0016C5.00124 5.40999 5.17859 4.83211 5.50931 4.34098C5.84002 3.84984 6.30926 3.46748 6.85775 3.24221C7.40624 3.01694 8.00937 2.95885 8.59094 3.0753C9.17251 3.19174 9.70644 3.47749 10.1253 3.89644C10.5441 4.31538 10.829 4.84874 10.9441 5.42913C11.0591 6.00951 10.9991 6.61088 10.7716 7.15727C10.5442 7.70366 10.1594 8.17055 9.66605 8.49896C9.17266 8.82737 8.59273 9.00256 7.99956 9.0024C7.20317 8.99903 6.44054 8.68129 5.87839 8.11866C5.31623 7.55604 5.00029 6.7943 4.99966 6.00001V6.0016ZM6.99959 6.0016C7.00006 6.19875 7.0591 6.39134 7.16926 6.55503C7.27943 6.71873 7.4358 6.8462 7.61856 6.92132C7.80132 6.99644 8.00226 7.01584 8.19608 6.97709C8.3899 6.93834 8.56788 6.84316 8.70749 6.70359C8.8471 6.56401 8.94209 6.3863 8.98048 6.1929C9.01887 5.9995 8.99891 5.7991 8.92316 5.61699C8.8474 5.43489 8.71925 5.27927 8.55486 5.16979C8.39047 5.0603 8.19723 5.00186 7.99956 5.00186C7.7346 5.00312 7.48085 5.10872 7.29357 5.29566C7.10629 5.4826 7.00064 5.73574 6.99959 6.00001V6.0016Z" fill="white"/>
</g>
</svg>
