<svg width="35" height="35" viewBox="0 0 21 21" fill="none" xmlns="http://www.w3.org/2000/svg">
<g id="Profile">
<path id="Vector" fill-rule="evenodd" clip-rule="evenodd" d="M16.0233 5.52287C16.0233 6.6152 15.6992 7.68298 15.0921 8.59123C14.485 9.49944 13.6221 10.2073 12.6125 10.6253C11.603 11.0433 10.4921 11.1527 9.42029 10.9396C8.34851 10.7265 7.36406 10.2005 6.59134 9.42813C5.81865 8.65575 5.29243 7.67166 5.07926 6.60034C4.86605 5.529 4.97547 4.41855 5.39365 3.40938C5.81185 2.40018 6.51999 1.53765 7.4286 0.930772C8.33718 0.323923 9.40542 1.73786e-05 10.4982 1.73786e-05C11.2242 -0.00180557 11.9435 0.139805 12.6147 0.4167C13.2858 0.693595 13.8957 1.10033 14.4091 1.61355C14.9225 2.12677 15.3294 2.73632 15.6064 3.40722C15.8834 4.0781 16.0251 4.79709 16.0233 5.52287ZM14.4182 5.52287C14.421 4.74461 14.1928 3.983 13.7625 3.33439C13.3322 2.68575 12.7191 2.17924 12.0009 1.8789C11.2826 1.57853 10.4913 1.49785 9.72716 1.647C8.96301 1.79615 8.26026 2.16847 7.70779 2.71685C7.15533 3.26525 6.77793 3.96507 6.62336 4.72787C6.46879 5.49064 6.54395 6.28213 6.83939 7.00219C7.13482 7.72226 7.63722 8.33861 8.28305 8.77327C8.92891 9.20791 9.6892 9.44138 10.4678 9.44412C11.5095 9.44412 12.5087 9.03144 13.2465 8.29646C13.9844 7.56148 14.4008 6.56413 14.4044 5.52287H14.4182ZM0.760191 20.9869C0.969804 20.9755 1.16651 20.8823 1.30807 20.7273C1.44963 20.5724 1.5247 20.3682 1.51713 20.1585C1.51713 16.9442 4.33218 14.2794 7.85443 14.2794H13.1419C16.6642 14.2794 19.4792 16.9442 19.4792 20.1585C19.4681 20.2647 19.4794 20.372 19.5124 20.4736C19.5455 20.5751 19.5995 20.6686 19.671 20.7479C19.7425 20.8273 19.8299 20.8907 19.9275 20.9341C20.0251 20.9775 20.1307 21 20.2375 21C20.3444 21 20.45 20.9775 20.5476 20.9341C20.6452 20.8907 20.7325 20.8273 20.8041 20.7479C20.8755 20.6686 20.9296 20.5751 20.9626 20.4736C20.9957 20.372 21.007 20.2647 20.9958 20.1585C20.9958 15.9445 17.4543 12.5921 13.1419 12.5921H7.85443C3.54208 12.5921 0.000515695 15.9445 0.000515695 20.1585C-0.00702773 20.3686 0.0684343 20.5733 0.210571 20.7283C0.352708 20.8833 0.550135 20.9762 0.760191 20.9869Z" fill="#5DD3B3"/>
</g>
</svg>
