<svg width="17" height="17" viewBox="0 0 17 17" fill="none" xmlns="http://www.w3.org/2000/svg">
<g id="shield_accept">
<path id="shield_accept_2" d="M7.36945 15.8999C5.16572 15.067 3.27419 13.5718 1.95496 11.6199C0.635739 9.66799 -0.0463813 7.35532 0.00245016 4.99994C0.00246278 4.62845 0.10593 4.26429 0.301278 3.9483C0.496627 3.63232 0.776155 3.377 1.10847 3.21094L7.10847 0.210938C7.38607 0.0722205 7.69212 0 8.00245 0C8.31278 0 8.61883 0.0722205 8.89643 0.210938L14.8964 3.21094C15.2287 3.377 15.5083 3.63232 15.7036 3.9483C15.899 4.26429 16.0024 4.62845 16.0025 4.99994C16.0512 7.35544 15.369 9.66819 14.0496 11.6201C12.7302 13.572 10.8384 15.0672 8.63447 15.8999C8.22409 16.0379 7.77984 16.0379 7.36945 15.8999ZM2.00245 4.99994C1.95297 6.93558 2.50286 8.83921 3.57691 10.4503C4.65096 12.0614 6.19668 13.3011 8.00245 13.9999C9.80831 13.3013 11.3541 12.0615 12.4282 10.4504C13.5022 8.83931 14.0521 6.93561 14.0024 4.99994L8.00245 1.99994L2.00245 4.99994ZM6.29548 10.7069L4.29548 8.70694C4.11332 8.51834 4.0125 8.26574 4.01478 8.00354C4.01706 7.74134 4.12222 7.49052 4.30763 7.30511C4.49303 7.11971 4.74385 7.01455 5.00605 7.01227C5.26825 7.00999 5.52082 7.11078 5.70942 7.29294L7.00245 8.58594L10.2955 5.29294C10.3877 5.19743 10.4981 5.12126 10.6201 5.06885C10.7421 5.01644 10.8733 4.98886 11.0061 4.9877C11.1388 4.98655 11.2705 5.01182 11.3934 5.0621C11.5163 5.11238 11.628 5.18666 11.7219 5.28055C11.8158 5.37444 11.89 5.48608 11.9403 5.60898C11.9905 5.73187 12.0159 5.86356 12.0147 5.99634C12.0136 6.12912 11.986 6.26035 11.9335 6.38235C11.8811 6.50436 11.8049 6.61469 11.7094 6.70694L7.70942 10.7069C7.52189 10.8944 7.26761 10.9997 7.00245 10.9997C6.73729 10.9997 6.48301 10.8944 6.29548 10.7069Z" fill="#5DD3B3"/>
</g>
</svg>
