<svg width="16" height="16" viewBox="0 0 16 16" fill="none" xmlns="http://www.w3.org/2000/svg">
<g id="upload_1">
<path id="upload_1_2" d="M1 16C0.734783 16 0.480435 15.8946 0.292899 15.7071C0.105363 15.5195 0 15.2652 0 15V12.9999C0 12.7347 0.105363 12.4803 0.292899 12.2928C0.480435 12.1052 0.734783 11.9999 1 11.9999C1.26522 11.9999 1.51956 12.1052 1.7071 12.2928C1.89464 12.4803 2 12.7347 2 12.9999V13.9999H14V12.9999C14 12.7347 14.1054 12.4803 14.2929 12.2928C14.4804 12.1052 14.7348 11.9999 15 11.9999C15.2652 11.9999 15.5196 12.1052 15.7071 12.2928C15.8946 12.4803 16 12.7347 16 12.9999V15C16.0001 15.1313 15.9744 15.2615 15.9242 15.3829C15.874 15.5043 15.8003 15.6145 15.7074 15.7074C15.6146 15.8003 15.5043 15.874 15.3829 15.9242C15.2615 15.9744 15.1314 16.0001 15 16H1ZM7 10.9998V3.41445L5.70626 4.7071C5.51715 4.88643 5.26554 4.98485 5.00495 4.98139C4.74436 4.97792 4.49539 4.87284 4.3111 4.68855C4.12682 4.50426 4.02174 4.25528 4.01828 3.99468C4.01481 3.73408 4.11323 3.48247 4.29255 3.29335L7.29255 0.293257C7.38542 0.200299 7.49573 0.126557 7.61712 0.0762439C7.7385 0.0259308 7.8686 0 8 0C8.1314 0 8.2615 0.0259308 8.38288 0.0762439C8.50427 0.126557 8.61458 0.200299 8.70745 0.293257L11.7074 3.29335C11.8868 3.48247 11.9852 3.73408 11.9817 3.99468C11.9783 4.25528 11.8732 4.50426 11.6889 4.68855C11.5046 4.87284 11.2556 4.97792 10.995 4.98139C10.7345 4.98485 10.4829 4.88643 10.2937 4.7071L9 3.41445V10.9998C9 11.2651 8.89464 11.5194 8.7071 11.707C8.51956 11.8945 8.26522 11.9999 8 11.9999C7.73478 11.9999 7.48043 11.8945 7.2929 11.707C7.10536 11.5194 7 11.2651 7 10.9998Z" fill="#5DD3B3"/>
</g>
</svg>
