<svg width="24" height="24" viewBox="0 0 24 24" fill="none" xmlns="http://www.w3.org/2000/svg">
<g id="Group">
<path id="Vector" d="M20.1514 8.38574C19.9489 8.38574 19.7877 8.2245 19.7877 8.02201V6.1396C19.7877 5.62587 19.3677 5.20589 18.854 5.20589H17.6878C17.4853 5.20589 17.3241 5.04465 17.3241 4.84216C17.3241 4.63967 17.4853 4.47842 17.6878 4.47842H18.854C19.7689 4.47842 20.5152 5.22464 20.5152 6.1396V8.02201C20.5152 8.2245 20.3539 8.38574 20.1514 8.38574Z" fill="#5DD3B3"/>
<path id="Vector_2" d="M17.1782 8.38576C17.0732 8.38576 16.972 8.34076 16.9007 8.25826C16.7695 8.10452 16.792 7.87578 16.942 7.74454L18.5282 6.4021L13.9534 0.998605L12.476 2.25105C12.3222 2.38229 12.0935 2.36354 11.9622 2.2098C11.831 2.05606 11.8497 1.82732 12.0035 1.69607L13.7584 0.207393C13.9121 0.0761487 14.1409 0.0948978 14.2721 0.248641L19.3194 6.20711C19.4506 6.36085 19.4281 6.58959 19.2781 6.72084L17.4145 8.29951C17.3432 8.35951 17.2607 8.38576 17.1782 8.38576Z" fill="#5DD3B3"/>
<g id="Group_2">
<path id="Vector_3" d="M1.84105 8.38573C1.73605 8.38573 1.63481 8.34074 1.56356 8.25824C1.43232 8.1045 1.45107 7.87576 1.60481 7.74451L10.6456 0.0873747C10.7206 0.0236277 10.8144 -0.00637092 10.9119 0.00112873C11.0094 0.00862837 11.0956 0.0536263 11.1594 0.128623L16.2066 6.08709C16.2704 6.16209 16.3004 6.25583 16.2929 6.35333C16.2854 6.45083 16.2404 6.53707 16.1654 6.60082L14.1592 8.29949C14.0055 8.42698 13.7767 8.40823 13.6455 8.25824C13.5143 8.1045 13.5367 7.87576 13.6867 7.74451L15.4154 6.28208L10.8369 0.878587L2.07354 8.29949C2.00604 8.35948 1.92355 8.38573 1.84105 8.38573Z" fill="#5DD3B3"/>
</g>
<g id="Group_3">
<g id="Group_4">
<g id="Group_5">
<g id="Group_6">
<g id="Group_7">
<path id="Vector_4" d="M22.9862 18.7503H16.484C15.6665 18.7503 14.8941 18.4315 14.3166 17.8541C13.7354 17.2728 13.4166 16.5041 13.4166 15.6867C13.4166 13.9955 14.7928 12.623 16.4802 12.623H22.9862C23.0162 12.623 23.0724 12.623 23.1399 12.6455C23.3312 12.7093 23.4324 12.9155 23.3687 13.1068C23.3124 13.2755 23.1399 13.3768 22.9712 13.3505H16.484C15.194 13.3505 14.1478 14.4005 14.1478 15.6867C14.1478 16.3091 14.3916 16.8978 14.8341 17.3403C15.2728 17.7791 15.8615 18.0228 16.4877 18.0228H22.9824C23.1512 17.9965 23.3237 18.0978 23.3799 18.2665C23.4437 18.4578 23.3387 18.664 23.1512 18.7278C23.0762 18.7503 23.0199 18.7503 22.9862 18.7503Z" fill="#5DD3B3"/>
</g>
</g>
</g>
<g id="Group_8">
<g id="Group_9">
<g id="Group_10">
<path id="Vector_5" d="M16.5819 17.4791C15.5957 17.4791 14.7895 16.6766 14.7895 15.6866C14.7895 14.7004 15.592 13.8942 16.5819 13.8942C17.5681 13.8942 18.3743 14.6967 18.3743 15.6866C18.3743 16.6766 17.5681 17.4791 16.5819 17.4791ZM16.5819 14.6217C15.9932 14.6217 15.517 15.0979 15.517 15.6866C15.517 16.2754 15.9932 16.7516 16.5819 16.7516C17.1706 16.7516 17.6469 16.2754 17.6469 15.6866C17.6469 15.0979 17.1669 14.6217 16.5819 14.6217Z" fill="#5DD3B3"/>
</g>
</g>
</g>
</g>
</g>
<g id="Group_11">
<path id="Vector_6" d="M21.9252 24H1.46618C0.659969 24 0 23.3438 0 22.5338V8.02203C0 7.81954 0.161242 7.65829 0.363733 7.65829H21.9252C22.7314 7.65829 23.3914 8.31451 23.3914 9.12448V22.5338C23.3914 23.3438 22.7352 24 21.9252 24ZM0.727466 8.38576V22.5338C0.727466 22.9426 1.05745 23.2726 1.46618 23.2726H21.9252C22.3339 23.2726 22.6639 22.9426 22.6639 22.5338V9.12448C22.6639 8.71574 22.3339 8.38576 21.9252 8.38576H0.727466Z" fill="#5DD3B3"/>
</g>
</g>
</svg>
