<svg width="16" height="16" viewBox="0 0 16 16" fill="none" xmlns="http://www.w3.org/2000/svg">
<path id="X_simple_1" d="M9.85014 7.95614L15.5501 2.25614C15.7828 2.00041 15.9081 1.66491 15.8999 1.31927C15.8917 0.973634 15.7508 0.644412 15.5063 0.399942C15.2619 0.155472 14.9326 0.014531 14.587 0.00637473C14.2414 -0.00178155 13.9059 0.123473 13.6501 0.35614L7.95014 6.05614L2.25014 0.350139C1.99441 0.117473 1.65891 -0.00778155 1.31327 0.00037473C0.967634 0.00853101 0.638412 0.149472 0.393942 0.393942C0.149472 0.638412 0.00853101 0.967634 0.00037473 1.31327C-0.00778155 1.65891 0.117473 1.99441 0.350139 2.25014L6.05014 7.95614L0.350139 13.6561C0.117473 13.9119 -0.00778155 14.2474 0.00037473 14.593C0.00853101 14.9386 0.149472 15.2679 0.393942 15.5123C0.638412 15.7568 0.967634 15.8977 1.31327 15.9059C1.65891 15.9141 1.99441 15.7888 2.25014 15.5561L7.95014 9.85614L13.6501 15.5561C13.9059 15.7888 14.2414 15.9141 14.587 15.9059C14.9326 15.8977 15.2619 15.7568 15.5063 15.5123C15.7508 15.2679 15.8917 14.9386 15.8999 14.593C15.9081 14.2474 15.7828 13.9119 15.5501 13.6561L9.85014 7.95614Z" fill="white"/>
</svg>
